<svg xmlns="http://www.w3.org/2000/svg" width="691.74" height="85.77" viewBox="0 0 691.74 85.77">
      <path d="M61.8,3.57A4.43,4.43,0,0,0,57.7.67H32.57a4.43,4.43,0,0,0-4.1,2.9L.81,81.23a3,3,0,0,0,2.9,3.87H21.1a4.24,4.24,0,0,0,4.11-2.78L29,71.81a1.79,1.79,0,0,1,1.45-1H59.87a1.78,1.78,0,0,1,1.45,1l3.75,10.51a4.21,4.21,0,0,0,4.1,2.78H86.69a2.92,2.92,0,0,0,2.78-3.87ZM51.42,50.19H38.85c-1,0-1.81-1-1.45-1.81L44.53,27a.63.63,0,0,1,1.21,0l7.13,21.38C53.23,49.23,52.38,50.19,51.42,50.19Z" fill="none" stroke="#fff" stroke-linejoin="round" stroke-width="1.34"/>
      <path d="M182.22,62.27c0-13.77-7.73-18-10.26-19-.37-.12-.37-.49-.12-.49,2.65-1.08,10.38-5.55,10.38-20,0-19.08-14.85-22.1-29.59-22.1H104.8a4.28,4.28,0,0,0-4.35,4.47V80.63a4.28,4.28,0,0,0,4.35,4.47h54.59C173.65,85.1,182.22,77.25,182.22,62.27Zm-32.13,3.14h-24a2.45,2.45,0,0,1-2.42-2.53V54.54A2.53,2.53,0,0,1,126.06,52h24a6.55,6.55,0,0,1,6.65,6.65A6.73,6.73,0,0,1,150.09,65.41Zm0-31.77h-24a2.45,2.45,0,0,1-2.42-2.53V22.65a2.42,2.42,0,0,1,2.42-2.41h24a6.55,6.55,0,0,1,6.65,6.64A6.73,6.73,0,0,1,150.09,33.64Z" fill="none" stroke="#fff" stroke-linejoin="round" stroke-width="1.34"/>
      <path d="M276.19,58.89v-32A26.17,26.17,0,0,0,250.1.67H219.3a26.12,26.12,0,0,0-26.21,26.21v32A26.12,26.12,0,0,0,219.3,85.1h30.8A26.17,26.17,0,0,0,276.19,58.89Zm-21.5-8.09A11.18,11.18,0,0,1,243.58,62H225.7A11.28,11.28,0,0,1,214.47,50.8V35A11.28,11.28,0,0,1,225.7,23.74h17.88A11.18,11.18,0,0,1,254.69,35Z" fill="none" stroke="#fff" stroke-linejoin="round" stroke-width="1.34"/>
      <path d="M368.83,58.89V5.14A4.46,4.46,0,0,0,364.36.67H349.87a4.43,4.43,0,0,0-4.35,4.47V53.21a8.77,8.77,0,0,1-8.7,8.82H319a8.87,8.87,0,0,1-8.82-8.82V5.14A4.35,4.35,0,0,0,305.78.67H291.53a4.46,4.46,0,0,0-4.47,4.47V58.89A26,26,0,0,0,313.15,85.1H342.5A26.14,26.14,0,0,0,368.83,58.89Z" fill="none" stroke="#fff" stroke-linejoin="round" stroke-width="1.34"/>
      <path d="M384.05,21.32h22.82a1.47,1.47,0,0,1,1.45,1.45V80.63a4.29,4.29,0,0,0,4.35,4.47h15.46a4.28,4.28,0,0,0,4.35-4.47V22.77a1.48,1.48,0,0,1,1.45-1.45h22.95A4.35,4.35,0,0,0,461.35,17V5.14A4.38,4.38,0,0,0,456.88.67H384.05a4.38,4.38,0,0,0-4.47,4.47V17A4.35,4.35,0,0,0,384.05,21.32Z" fill="none" stroke="#fff" stroke-linejoin="round" stroke-width="1.34"/>
      <path d="M567.27,85.1a26.14,26.14,0,0,0,26.34-26.21V5.14A4.46,4.46,0,0,0,589.14.67h-14.5a4.44,4.44,0,0,0-4.35,4.47V53.21A8.76,8.76,0,0,1,561.6,62H543.72a8.87,8.87,0,0,1-8.82-8.82V5.14A4.35,4.35,0,0,0,530.55.67H516.3a4.46,4.46,0,0,0-4.47,4.47V58.89A26,26,0,0,0,537.92,85.1Z" fill="none" stroke="#fff" stroke-linejoin="round" stroke-width="1.34"/>
      <path d="M662.33,85.1c10.51,0,28.75-1.45,28.75-26.21,0-22.47-15.34-23.19-24.16-24-8.21-.84-27.18-1.45-32.86-2.17-5.19-.61-5.67-2.54-5.67-5.68a5.57,5.57,0,0,1,5.55-5.68H661a5.8,5.8,0,0,1,5.8,5.8,2.41,2.41,0,0,0,2.53,2.54H687a2.35,2.35,0,0,0,2.54-2.54V21.2A20.31,20.31,0,0,0,669.21.67h-40.7c-17.4,0-24.16,8.94-24.16,26.57S621,50.43,628.51,51c8.21.72,29.35,1.57,32.73,2.05s5.8,2.78,5.68,6a5.63,5.63,0,0,1-5.8,5.31H634.18a5.79,5.79,0,0,1-5.79-5.79,2.48,2.48,0,0,0-2.54-2.54H608.46a2.58,2.58,0,0,0-2.66,2.54v3.14A23.38,23.38,0,0,0,629,85.1Z" fill="none" stroke="#fff" stroke-linejoin="round" stroke-width="1.34"/>
</svg>
