<svg xmlns="http://www.w3.org/2000/svg" width="65.6514" height="13.1865" viewBox="0 0 65.6514 13.1865">
      <path d="M14.2236,3.7324a3.6447,3.6447,0,0,0-.9795-2.5586A3.7655,3.7655,0,0,0,10.3682,0H2.6338A2.538,2.538,0,0,0,.7793.7676,2.5353,2.5353,0,0,0,0,2.6338V13.1865H10.3682a3.9,3.9,0,0,0,3.9082-3.97,3.6989,3.6989,0,0,0-1.1719-2.7891A3.5141,3.5141,0,0,0,14.2236,3.7324ZM10.3682,5.3086H2.1475V2.6338a.4638.4638,0,0,1,.1455-.35.4488.4488,0,0,1,.3408-.1455h7.7344a1.6652,1.6652,0,0,1,1.3076.5049,1.5177,1.5177,0,0,1,.4,1.0888A1.5364,1.5364,0,0,1,11.6768,4.82,1.6978,1.6978,0,0,1,10.3682,5.3086Zm0,5.7393H2.1475V7.4561h8.2207a1.7554,1.7554,0,0,1,1.7607,1.7607v.07a1.7722,1.7722,0,0,1-1.7607,1.7608Z" fill="#fff"/>
      <path d="M19.88,10.9053a.4817.4817,0,0,1-.1387-.3526V0H17.5938V10.5527a2.6239,2.6239,0,0,0,2.6337,2.6338h9.0411V11.0479H20.2275A.4693.4693,0,0,1,19.88,10.9053Z" fill="#fff"/>
      <path d="M43.209,0H36.8545a4.1363,4.1363,0,0,0-3.0078,1.2432A4.1158,4.1158,0,0,0,32.6035,4.251V8.9443a4.2461,4.2461,0,0,0,4.251,4.2422H43.209A4.2444,4.2444,0,0,0,47.46,8.9443V4.251a4.1137,4.1137,0,0,0-1.2452-3.0088A4.1317,4.1317,0,0,0,43.209,0Zm0,11.0479H36.8545a1.9869,1.9869,0,0,1-1.4834-.62,2.0072,2.0072,0,0,1-.62-1.4834V4.251a2.019,2.019,0,0,1,.6211-1.4942,1.9886,1.9886,0,0,1,1.4824-.6181H43.209a1.9868,1.9868,0,0,1,1.4834.62,2.0143,2.0143,0,0,1,.62,1.4922V8.9443a2.0119,2.0119,0,0,1-.6211,1.4854A1.9887,1.9887,0,0,1,43.209,11.0479Z" fill="#fff"/>
      <path d="M57.07,7.4561h6.4336V8.9443A2.1023,2.1023,0,0,1,61.4,11.0479H55.0459a2.1175,2.1175,0,0,1-2.1035-2.1036V4.251a2.0143,2.0143,0,0,1,.62-1.4922,2.0072,2.0072,0,0,1,1.4834-.62h8.9619V0H55.0459a4.1011,4.1011,0,0,0-2.9971,1.2422A4.1016,4.1016,0,0,0,50.7949,4.251V8.9443a4.2595,4.2595,0,0,0,4.251,4.2422H61.4a4.2444,4.2444,0,0,0,4.251-4.2422V5.3086H57.07Z" fill="#fff"/>
</svg>
