<svg xmlns="http://www.w3.org/2000/svg" width="119.4971" height="13.1865" viewBox="0 0 119.4971 13.1865">
      <path d="M1.2451,1.2422l-.0019.001A4.1158,4.1158,0,0,0,0,4.251V8.9443a4.1035,4.1035,0,0,0,1.2451,3A4.1315,4.1315,0,0,0,4.251,13.1865H14.8564V11.0479H4.251a1.9869,1.9869,0,0,1-1.4834-.62,2.0056,2.0056,0,0,1-.62-1.4834V4.251a2.0206,2.0206,0,0,1,.6211-1.4942A1.9886,1.9886,0,0,1,4.251,2.1387H14.8564V0H4.251A4.1319,4.1319,0,0,0,1.2451,1.2422Z" fill="#fff"/>
      <path d="M28.7969,0H22.4424a4.1363,4.1363,0,0,0-3.0078,1.2432A4.1158,4.1158,0,0,0,18.1914,4.251V8.9443a4.2461,4.2461,0,0,0,4.251,4.2422h6.3545a4.2444,4.2444,0,0,0,4.251-4.2422V4.251a4.1137,4.1137,0,0,0-1.2452-3.0088A4.1317,4.1317,0,0,0,28.7969,0Zm0,11.0479H22.4424a2.1175,2.1175,0,0,1-2.1035-2.1036V4.251A2.0206,2.0206,0,0,1,20.96,2.7568a1.9886,1.9886,0,0,1,1.4824-.6181h6.3545a1.9868,1.9868,0,0,1,1.4834.62A2.0159,2.0159,0,0,1,30.9,4.251V8.9443a2.01,2.01,0,0,1-.6211,1.4854A1.9887,1.9887,0,0,1,28.7969,11.0479Z" fill="#fff"/>
      <path d="M46.9883,0H40.6338a4.1011,4.1011,0,0,0-2.9971,1.2422A4.1016,4.1016,0,0,0,36.3828,4.251v8.9355H38.53V4.251a2.0206,2.0206,0,0,1,.6211-1.4942,1.9886,1.9886,0,0,1,1.4824-.6181h6.3545a2.0179,2.0179,0,0,1,1.4912.6181,2.0319,2.0319,0,0,1,.6123,1.4942v8.9267h2.1475V4.251a4.1137,4.1137,0,0,0-1.2452-3.0088A4.1317,4.1317,0,0,0,46.9883,0Z" fill="#fff"/>
      <path d="M65.18,0H58.8252a4.1011,4.1011,0,0,0-2.9971,1.2422A4.1016,4.1016,0,0,0,54.5742,4.251v8.9355h2.1475V4.251a2.0206,2.0206,0,0,1,.6211-1.4942,1.9886,1.9886,0,0,1,1.4824-.6181H65.18a2.0179,2.0179,0,0,1,1.4912.6181,2.0319,2.0319,0,0,1,.6123,1.4942v8.9267h2.1475V4.251a4.1137,4.1137,0,0,0-1.2452-3.0088A4.1315,4.1315,0,0,0,65.18,0Z" fill="#fff"/>
      <path d="M73.5352.7686a2.5526,2.5526,0,0,0-.7686,1.8652V13.1865H85.32V11.0479H74.9053V7.4561H85.32V5.3086H74.9053V2.6338a.4638.4638,0,0,1,.1455-.35.4489.4489,0,0,1,.3408-.1455H85.32V0H75.3916A2.5424,2.5424,0,0,0,73.5352.7686Z" fill="#fff"/>
      <path d="M89.9,1.2422l-.002.001A4.1157,4.1157,0,0,0,88.6553,4.251V8.9443a4.2461,4.2461,0,0,0,4.2509,4.2422h10.6055V11.0479H92.9062a2.1177,2.1177,0,0,1-2.1035-2.1036V4.251a2.021,2.021,0,0,1,.6211-1.4942,1.9888,1.9888,0,0,1,1.4824-.6181h10.6055V0H92.9062A4.1318,4.1318,0,0,0,89.9,1.2422Z" fill="#fff"/>
      <polygon points="106.847 0 106.847 2.139 112.094 2.139 112.094 13.187 114.241 13.187 114.241 2.139 119.497 2.139 119.497 0 106.847 0" fill="#fff"/>
</svg>
