<svg xmlns="http://www.w3.org/2000/svg" width="1090.85" height="148.11" viewBox="0 0 1090.85 148.11">
  <path d="M1.16,101.69V46.63A45.09,45.09,0,0,1,46.21,1.16H96.89a45.31,45.31,0,0,1,45.47,45.47v5.63a5.07,5.07,0,0,1-5,5H107.11a5.07,5.07,0,0,1-5-5A10.78,10.78,0,0,0,91.26,41.41H56c-8.34,0-15,8.76-15,16.9V91.89a15,15,0,0,0,15,15H91.26a10.77,10.77,0,0,0,10.85-10.84,5.08,5.08,0,0,1,5-5h30.25a5.08,5.08,0,0,1,5,5v5.63A45.13,45.13,0,0,1,96.89,147H46.21A44.91,44.91,0,0,1,1.16,101.69Z" fill="none" stroke="#fff" stroke-linejoin="round" stroke-width="2.32"/>
  <path d="M160.92,101.69V46.42A45.09,45.09,0,0,1,206.18,1.16h53.19a45.17,45.17,0,0,1,45.05,45.26v55.27A45.17,45.17,0,0,1,259.37,147H206.18A45.09,45.09,0,0,1,160.92,101.69Zm56.32,5.42h30.87A19.32,19.32,0,0,0,267.3,87.72V60.39A19.32,19.32,0,0,0,248.11,41H217.24a19.49,19.49,0,0,0-19.4,19.39V87.72A19.49,19.49,0,0,0,217.24,107.11Z" fill="none" stroke="#fff" stroke-linejoin="round" stroke-width="2.32"/>
  <path d="M323.19,8.88c0-4.38,3.13-7.72,7.3-7.72h32.75a7.36,7.36,0,0,1,6.46,3.75L425,77.29c.62.83,1.66.41,1.66-.63V8.88a7.53,7.53,0,0,1,7.51-7.72h25a7.53,7.53,0,0,1,7.51,7.72V139a7.53,7.53,0,0,1-7.51,7.72H426.64a7.68,7.68,0,0,1-6.46-3.75L365.12,70.61a1,1,0,0,0-1.88.63V139a7.53,7.53,0,0,1-7.51,7.72H330.49c-4.17,0-7.3-3.34-7.3-7.72Z" fill="none" stroke="#fff" stroke-linejoin="round" stroke-width="2.32"/>
  <path d="M485.46,8.88c0-4.38,3.13-7.72,7.3-7.72h32.75A7.36,7.36,0,0,1,532,4.91l55.27,72.38c.63.83,1.67.41,1.67-.63V8.88a7.53,7.53,0,0,1,7.51-7.72h25A7.53,7.53,0,0,1,629,8.88V139a7.53,7.53,0,0,1-7.51,7.72H588.91a7.68,7.68,0,0,1-6.46-3.75L527.38,70.61a1,1,0,0,0-1.87.63V139a7.53,7.53,0,0,1-7.51,7.72H492.76c-4.17,0-7.3-3.34-7.3-7.72Z" fill="none" stroke="#fff" stroke-linejoin="round" stroke-width="2.32"/>
  <path d="M655.24,1.16H762a7.58,7.58,0,0,1,7.72,7.72V27.65c0,4.17-3.34,7.3-7.72,7.3h-72a2.56,2.56,0,0,0-2.29,2.71V54.55a2.56,2.56,0,0,0,2.29,2.71h72a7.4,7.4,0,0,1,7.72,7.51V85c0,4.38-3.34,5.84-7.72,5.84h-72a2.57,2.57,0,0,0-2.29,2.72v16.89a2.56,2.56,0,0,0,2.29,2.71h72c4.38,0,7.72,3.13,7.72,7.3v18.77A7.58,7.58,0,0,1,762,147H655.24a7.4,7.4,0,0,1-7.51-7.72V8.88A7.4,7.4,0,0,1,655.24,1.16Z" fill="none" stroke="#fff" stroke-linejoin="round" stroke-width="2.32"/>
  <path d="M788.52,101.69V46.63A45.09,45.09,0,0,1,833.57,1.16h50.68a45.31,45.31,0,0,1,45.47,45.47v5.63a5.07,5.07,0,0,1-5,5H894.47a5.07,5.07,0,0,1-5-5,10.78,10.78,0,0,0-10.85-10.85H843.37c-8.34,0-15,8.76-15,16.9V91.89a15,15,0,0,0,15,15h35.25a10.77,10.77,0,0,0,10.85-10.84,5.08,5.08,0,0,1,5-5h30.24a5.08,5.08,0,0,1,5,5v5.63A45.13,45.13,0,0,1,884.25,147H833.57A44.91,44.91,0,0,1,788.52,101.69Z" fill="none" stroke="#fff" stroke-linejoin="round" stroke-width="2.32"/>
  <path d="M956.21,1.16H1082a7.57,7.57,0,0,1,7.71,7.72V29.32a7.51,7.51,0,0,1-7.71,7.5h-39.63a2.54,2.54,0,0,0-2.5,2.51v99.9a7.4,7.4,0,0,1-7.51,7.72h-26.7a7.4,7.4,0,0,1-7.51-7.72V39.33a2.54,2.54,0,0,0-2.5-2.51H956.21a7.52,7.52,0,0,1-7.72-7.5V8.88A7.58,7.58,0,0,1,956.21,1.16Z" fill="none" stroke="#fff" stroke-linejoin="round" stroke-width="2.32"/>
</svg>
