<svg xmlns="http://www.w3.org/2000/svg" width="70.8896" height="13.1865" viewBox="0 0 70.8896 13.1865">
      <polygon points="11.294 5.309 2.147 5.309 2.147 0 0 0 0 13.187 2.147 13.187 2.147 7.456 11.294 7.456 11.294 13.187 13.433 13.187 13.433 0 11.294 0 11.294 5.309" fill="#fff"/>
      <path d="M27.3555,0H21.001a4.1363,4.1363,0,0,0-3.0078,1.2432A4.1158,4.1158,0,0,0,16.75,4.251V8.9443a4.2461,4.2461,0,0,0,4.251,4.2422h6.3545a4.2442,4.2442,0,0,0,4.2509-4.2422V4.251a4.1136,4.1136,0,0,0-1.2451-3.0088A4.1318,4.1318,0,0,0,27.3555,0Zm0,11.0479H21.001a1.9869,1.9869,0,0,1-1.4834-.62,2.0072,2.0072,0,0,1-.62-1.4834V4.251a2.019,2.019,0,0,1,.6211-1.4942,1.9886,1.9886,0,0,1,1.4824-.6181h6.3545a1.9868,1.9868,0,0,1,1.4834.62,2.0143,2.0143,0,0,1,.62,1.4922V8.9443a2.0119,2.0119,0,0,1-.6211,1.4854A1.9887,1.9887,0,0,1,27.3555,11.0479Z" fill="#fff"/>
      <path d="M51.6641,0H47.8057a3.3151,3.3151,0,0,0-2.6641,1.3584A2.8736,2.8736,0,0,0,42.6992,0H38.8408a3.3407,3.3407,0,0,0-2.5869,1.2812,5.8185,5.8185,0,0,0-1.3125,3.1016v8.8037H37.08V5.1211a3.9476,3.9476,0,0,1,.5732-2.1533,1.4583,1.4583,0,0,1,1.1875-.8291h3.8584c.1045,0,.4219,0,.78.5879a2.9581,2.9581,0,0,1,.418,1.5859v8.874h2.1474V5.1211A3.944,3.944,0,0,1,46.62,2.9658a1.4413,1.4413,0,0,1,1.1856-.8271h3.8584c.1025,0,.415,0,.7783.5849a3.01,3.01,0,0,1,.4111,1.5889v8.874H55.001V4.3125A4.9012,4.9012,0,0,0,54.0547,1.3,2.927,2.927,0,0,0,51.6641,0Z" fill="#fff"/>
      <path d="M59.1045.7686a2.5526,2.5526,0,0,0-.7686,1.8652V13.1865H70.89V11.0479H60.4746V7.4561H70.89V5.3086H60.4746V2.6338a.4638.4638,0,0,1,.1455-.35.4489.4489,0,0,1,.3408-.1455H70.89V0H60.9609A2.5425,2.5425,0,0,0,59.1045.7686Z" fill="#fff"/>
</svg>
