<svg xmlns="http://www.w3.org/2000/svg" viewBox="0 0 117.61 57.32"><g id="Layer_2" data-name="Layer 2"><g id="Layer_1-2" data-name="Layer 1"><path d="M47.44,50.24l1.47-1.47a.69.69,0,0,0-.08-1l-6.69-4.81a.68.68,0,0,0-.89.07l-.75.67A19.1,19.1,0,0,1,9.56,29,19.1,19.1,0,0,1,43.7,16.88L66.36,46.31l0,0a28.66,28.66,0,1,0-.7-34.44l-2.57,3.33a4.78,4.78,0,0,0,7.57,5.83l2.61-3.39a1.13,1.13,0,0,0,.1-.13,19.11,19.11,0,1,1,.52,22.91L51.26,11l0,0A28.67,28.67,0,0,0,0,28.19,28.88,28.88,0,0,0,28.58,57.32a28.45,28.45,0,0,0,17.77-6.1Z"/><path d="M51,44.68l-.8,1a1,1,0,0,1-1.34.17L43.81,42a1,1,0,0,1-.18-1.35l.12-.14a1,1,0,0,1,1.2-.27l5.75,3A1,1,0,0,1,51,44.68Z"/><path d="M53.24,41.92h0a1,1,0,0,1-1.2.27l-5.75-3A1,1,0,0,1,46,37.74h0a1,1,0,0,1,1.21-.26l5.75,3A1,1,0,0,1,53.24,41.92Z"/><path d="M49.7,35.06l-.85.83a.44.44,0,0,0,.12.7l4.66,2.25a.44.44,0,0,0,.58-.22h0a.43.43,0,0,0-.12-.51L50.28,35A.43.43,0,0,0,49.7,35.06Z"/></g></g></svg>