<svg xmlns="http://www.w3.org/2000/svg" width="510.4" height="682.15" viewBox="0 0 510.4 682.15">
      <line x1="62.69" y1="0.22" x2="455.05" y2="0.22" fill="none" stroke="#ff9c0a" stroke-width="0.43" stroke-dasharray="1.29 0.86"/>
      <line x1="62.69" y1="679.93" x2="455.05" y2="679.93" fill="none" stroke="#ff9c0a" stroke-width="0.43" stroke-dasharray="1.71 1.71"/>
      <line x1="508.74" y1="105.16" x2="0.13" y2="501.13" fill="none" stroke="#ff9c0a" stroke-width="0.43" stroke-dasharray="1.72 1.72"/>
      <line x1="510.27" y1="181.06" x2="4.01" y2="567.43" fill="none" stroke="#ff9c0a" stroke-width="0.43" stroke-dasharray="1.72 1.72"/>
      <path d="M255.05,681.87A167.74,167.74,0,0,0,419.79,516.15" fill="none" stroke="#ff9c0a" stroke-width="0.5" stroke-dasharray="2 2"/>
      <path d="M419.77,511.16A167.73,167.73,0,0,0,254.05,346.43" fill="none" stroke="#ff9c0a" stroke-width="0.5" stroke-dasharray="2 2"/>
      <path d="M249.06,346.44A167.74,167.74,0,0,0,84.33,512.16" fill="none" stroke="#ff9c0a" stroke-width="0.5" stroke-dasharray="2 2"/>
      <path d="M84.34,517.15A167.75,167.75,0,0,0,250.06,681.89" fill="none" stroke="#ff9c0a" stroke-width="0.5" stroke-dasharray="2 2"/>
      <path d="M251.06,681.9h2M84.32,513.16c0,.33,0,.66,0,1s0,.66,0,1M253.06,346.42h-2M419.8,515.16v-2" fill="none" stroke="#ff9c0a" stroke-width="0.5"/>
      <path d="M125.34,275.4l8.58,8.49a4.07,4.07,0,0,0,6.12-.49l28.18-38.64a3.93,3.93,0,0,0-.42-5.12l-3.93-4.31a108.58,108.58,0,0,1-24.07-68.4c0-60.22,49.16-109.33,110-110.35,61.92-1,113.39,48.47,113.83,109.55a109.27,109.27,0,0,1-42.89,87.68L148.34,384.68l-.21.16c-41.19,31.89-64.67,79.91-64.27,131.57.69,90.56,76,164.25,167.84,164.25,92.55,0,167.85-74.26,167.85-165.54a165.31,165.31,0,0,0-69.76-134.35L330.3,366a28.24,28.24,0,0,0-39.23,5,27.34,27.34,0,0,0,5.09,38.7L316,424.76l.78.57a110.27,110.27,0,0,1,46.81,89.79c0,60.19-49.1,109.27-109.87,110.34-61.89,1.09-113.4-48.34-113.92-109.39a109.25,109.25,0,0,1,42.77-87.75L354.93,297.46a1.33,1.33,0,0,0,.19-.14c40.95-31.62,64.43-79.15,64.43-130.39,0-90.39-73.82-164.08-165.12-165.53C161.87-.06,84.11,75.14,83.85,166.45a162.9,162.9,0,0,0,35.77,102.66Z" fill="none" stroke="#ff9c0a" stroke-miterlimit="10" stroke-width="2"/>
      <path d="M180.6,322.09a5,5,0,0,1-4,2.19,4.56,4.56,0,0,1-4.34-6.39A5.75,5.75,0,0,0,171,311.1a5,5,0,0,0-5.85-.94,4.82,4.82,0,0,1-5.31-.42c-1.6-1.27-1.94-4.3-1.1-6.11a5.5,5.5,0,0,0-1.42-6,5,5,0,0,0-5.85-.95,4.71,4.71,0,0,1-6.12-6.92l26.92-37.84a5,5,0,0,1,4-2.19,4.57,4.57,0,0,1,4.34,6.4,5.74,5.74,0,0,0,1.21,6.78,5,5,0,0,0,5.85.95l.39-.2a4.71,4.71,0,0,1,1.9-.42,4.57,4.57,0,0,1,4.33,6.4,5.77,5.77,0,0,0,1.21,6.78,5,5,0,0,0,5.85.95,4.72,4.72,0,0,1,6.12,6.93Z" fill="none" stroke="#ff9c0a" stroke-miterlimit="10" stroke-width="2"/>
      <path d="M188.51,323.85l21-30.47a2.7,2.7,0,0,1,4.37-.08l4,5.47a2.59,2.59,0,0,1-.25,3.39l-25,25a2.73,2.73,0,0,1-2,.78A2.63,2.63,0,0,1,188.51,323.85Z" fill="none" stroke="#ff9c0a" stroke-miterlimit="10" stroke-width="2"/>
</svg>
