<svg xmlns="http://www.w3.org/2000/svg" viewBox="0 0 537 261.74"><g id="Layer_2" data-name="Layer 2"><g id="Layer_1-2" data-name="Layer 1"><path d="M216.63,229.39l6.7-6.69a3.14,3.14,0,0,0-.38-4.77L192.4,196a3.14,3.14,0,0,0-4.05.32l-3.41,3.07a87.25,87.25,0,0,1-141.3-67C42.82,84.1,82,44,130.24,43.63a86.74,86.74,0,0,1,69.31,33.43L303,211.46l.12.16a130.17,130.17,0,0,0,104,50.11C478.73,261.19,537,202.46,537,130.87,537,58.71,478.29,0,406.13,0A131.24,131.24,0,0,0,299.92,54.39l-11.7,15.19a21.81,21.81,0,0,0,34.55,26.63L334.7,80.73l.45-.61a87.25,87.25,0,0,1,158.21,49.17c.86,48.25-38.22,88.42-86.48,88.82a86.8,86.8,0,0,1-69.37-33.35L234.06,50.38a.76.76,0,0,0-.11-.14A130.13,130.13,0,0,0,130.87,0C59.42,0,1.16,57.56,0,128.74c-1.16,72.17,58.29,132.8,130.47,133a129.88,129.88,0,0,0,81.16-27.89Z"/><path d="M253.43,186.36a3.91,3.91,0,0,1,1.72,3.14,3.59,3.59,0,0,1-5,3.37,4.58,4.58,0,0,0-5.34.94,3.82,3.82,0,0,0-.75,4.54,3.69,3.69,0,0,1-.33,4.13c-1,1.25-3.38,1.5-4.81.85a4.38,4.38,0,0,0-4.76,1.11,3.82,3.82,0,0,0-.74,4.54,3.72,3.72,0,0,1-.33,4.13,3.81,3.81,0,0,1-5.14.62L198.1,192.82a3.91,3.91,0,0,1-1.73-3.13,3.6,3.6,0,0,1,5-3.37,4.59,4.59,0,0,0,5.35-.94,3.82,3.82,0,0,0,.75-4.54l-.16-.31a3.55,3.55,0,0,1-.33-1.47,3.59,3.59,0,0,1,5-3.37,4.59,4.59,0,0,0,5.35-.94,3.83,3.83,0,0,0,.74-4.55,3.69,3.69,0,0,1,.33-4.12,3.79,3.79,0,0,1,5.13-.62Z"/><path d="M254.83,180.07l-23.91-16.2a2.06,2.06,0,0,1-.06-3.38l4.29-3.13a2.06,2.06,0,0,1,2.66.2l19.63,19.33a2.1,2.1,0,0,1,.62,1.55h0A2.07,2.07,0,0,1,254.83,180.07Z"/></g></g></svg>