<svg xmlns="http://www.w3.org/2000/svg" width="785.34" height="85.77" viewBox="0 0 785.34 85.77">
      <path d="M66.86,64.44H26.15A1.46,1.46,0,0,1,24.71,63V5.14A4.19,4.19,0,0,0,20.48.67H5A4.28,4.28,0,0,0,.67,5.14V80.63A4.28,4.28,0,0,0,5,85.1H66.86a4.46,4.46,0,0,0,4.47-4.47V68.79A4.44,4.44,0,0,0,66.86,64.44Z" fill="#fff" stroke="#fff" stroke-linejoin="round" stroke-width="1.34"/>
      <path d="M143.56.67H86.66A4.38,4.38,0,0,0,82.2,5.14V15.77a4.36,4.36,0,0,0,4.46,4.35H100.8a1.56,1.56,0,0,1,1.45,1.44V64.32a1.56,1.56,0,0,1-1.45,1.45H86.66a4.36,4.36,0,0,0-4.46,4.35V80.63a4.38,4.38,0,0,0,4.46,4.47h56.9a4.26,4.26,0,0,0,4.22-4.47V70.12a4.23,4.23,0,0,0-4.22-4.35H129.18a1.47,1.47,0,0,1-1.45-1.45V21.56a1.47,1.47,0,0,1,1.45-1.44h14.38a4.23,4.23,0,0,0,4.22-4.35V5.14A4.26,4.26,0,0,0,143.56.67Z" fill="#fff" stroke="#fff" stroke-linejoin="round" stroke-width="1.34"/>
      <path d="M214.7.67H184.38a25.88,25.88,0,0,0-25.73,26V59.25A25.78,25.78,0,0,0,184.38,85.1H214.7a25.77,25.77,0,0,0,25.72-25.85V42.94a2.91,2.91,0,0,0-2.89-2.77H208.9a2.92,2.92,0,0,0-2.9,2.77V51.4a3,3,0,0,0,2.9,3h6.76A1.62,1.62,0,0,1,217.35,56a5.9,5.9,0,0,1-5.91,5.8H187.52a5.73,5.73,0,0,1-5.8-5.8V29.78a5.8,5.8,0,0,1,5.8-5.8h25.37a4.35,4.35,0,0,1,4.46,4.35,2.26,2.26,0,0,0,2.3,2.42h18.48a2.32,2.32,0,0,0,2.29-2.42V26.64A25.88,25.88,0,0,0,214.7.67Z" fill="#fff" stroke="#fff" stroke-linejoin="round" stroke-width="1.34"/>
      <path d="M328.72.67H313.25a4.38,4.38,0,0,0-4.46,4.47V31.23a1.38,1.38,0,0,1-1.33,1.45H276.9a1.47,1.47,0,0,1-1.45-1.45V5.14A4.28,4.28,0,0,0,271.1.67H255.76a4.38,4.38,0,0,0-4.47,4.47V80.63a4.38,4.38,0,0,0,4.47,4.47H271.1a4.28,4.28,0,0,0,4.35-4.47v-26a1.47,1.47,0,0,1,1.45-1.45h30.56a1.38,1.38,0,0,1,1.33,1.45v26a4.38,4.38,0,0,0,4.46,4.47h15.47a4.28,4.28,0,0,0,4.34-4.47V5.14A4.28,4.28,0,0,0,328.72.67Z" fill="#fff" stroke="#fff" stroke-linejoin="round" stroke-width="1.34"/>
      <path d="M421.23.67H348.4a4.38,4.38,0,0,0-4.47,4.47V17a4.35,4.35,0,0,0,4.47,4.34h22.83a1.48,1.48,0,0,1,1.45,1.45V80.63A4.28,4.28,0,0,0,377,85.1h15.47a4.28,4.28,0,0,0,4.34-4.47V22.77a1.48,1.48,0,0,1,1.45-1.45h23A4.35,4.35,0,0,0,425.7,17V5.14A4.38,4.38,0,0,0,421.23.67Z" fill="#fff" stroke="#fff" stroke-linejoin="round" stroke-width="1.34"/>
      <path d="M502.76,64.44h-40.7A1.46,1.46,0,0,1,460.61,63V5.14A4.19,4.19,0,0,0,456.38.67H440.92a4.28,4.28,0,0,0-4.35,4.47V80.63a4.28,4.28,0,0,0,4.35,4.47h61.84a4.46,4.46,0,0,0,4.47-4.47V68.79A4.44,4.44,0,0,0,502.76,64.44Z" fill="#fff" stroke="#fff" stroke-linejoin="round" stroke-width="1.34"/>
      <path d="M575.11.67h-30.8A26.11,26.11,0,0,0,518.1,26.88v32A26.11,26.11,0,0,0,544.31,85.1h30.8A26.17,26.17,0,0,0,601.2,58.89v-32A26.17,26.17,0,0,0,575.11.67ZM579.7,50.8A11.18,11.18,0,0,1,568.59,62H550.71A11.28,11.28,0,0,1,539.48,50.8V35a11.28,11.28,0,0,1,11.23-11.23h17.88A11.18,11.18,0,0,1,579.7,35Z" fill="#fff" stroke="#fff" stroke-linejoin="round" stroke-width="1.34"/>
      <path d="M669.08.67h-30.8a26.12,26.12,0,0,0-26.22,26.21v32A26.12,26.12,0,0,0,638.28,85.1h30.8a26.17,26.17,0,0,0,26.09-26.21v-32A26.17,26.17,0,0,0,669.08.67Zm4.59,50.13A11.19,11.19,0,0,1,662.55,62H644.68A11.29,11.29,0,0,1,633.44,50.8V35a11.29,11.29,0,0,1,11.24-11.23h17.87A11.19,11.19,0,0,1,673.67,35Z" fill="#fff" stroke="#fff" stroke-linejoin="round" stroke-width="1.34"/>
      <path d="M758.94.67H710.5A4.39,4.39,0,0,0,706,5.14V80.63a4.39,4.39,0,0,0,4.47,4.47h15.34a4.28,4.28,0,0,0,4.35-4.47V60.22a1.55,1.55,0,0,1,1.45-1.45h27.3c6,0,25.73-4.83,25.73-29S763.41.67,758.94.67Zm-7.37,36.11H731.64a1.46,1.46,0,0,1-1.45-1.44V24.22a1.56,1.56,0,0,1,1.45-1.45h19.57a7.32,7.32,0,0,1,7.37,6.89A6.89,6.89,0,0,1,751.57,36.78Z" fill="#fff" stroke="#fff" stroke-linejoin="round" stroke-width="1.34"/>
</svg>
