<svg xmlns="http://www.w3.org/2000/svg" viewBox="0 0 216.1 33.9"><g id="Layer_2" data-name="Layer 2"><g id="Layer_1-2" data-name="Layer 1"><path d="M6,21.81v-20A1.79,1.79,0,0,0,4.21,0H1.79A1.79,1.79,0,0,0,0,1.79v22.5a1.82,1.82,0,0,0,.52,1.27l7.6,7.59a1.79,1.79,0,0,0,1.27.53h9.93a1.79,1.79,0,0,0,1.79-1.79V29.47a1.79,1.79,0,0,0-1.79-1.79H11.87a1.76,1.76,0,0,1-1.26-.53L6.52,23.07A1.8,1.8,0,0,1,6,21.81Z"/><path d="M59.5,20.35h2a1.79,1.79,0,0,1,1.79,1.78v3.76a1.79,1.79,0,0,1-1.79,1.79h-8a1.79,1.79,0,0,1-1.79-1.79V8a1.79,1.79,0,0,1,1.79-1.79h9A1.79,1.79,0,0,0,64.3,4.43V2A1.79,1.79,0,0,0,62.52.22h-12A4.8,4.8,0,0,0,45.72,5V28.87a4.8,4.8,0,0,0,4.8,4.81h14a4.81,4.81,0,0,0,4.81-4.81V18.77a4.43,4.43,0,0,0-4.43-4.42H59.5a1.79,1.79,0,0,0-1.79,1.78v2.43A1.79,1.79,0,0,0,59.5,20.35Z"/><path d="M87.75,14.55H81.11a1.79,1.79,0,0,1-1.79-1.79V2A1.79,1.79,0,0,0,77.53.17H75.11A1.79,1.79,0,0,0,73.32,2v30a1.79,1.79,0,0,0,1.79,1.79h2.42a1.79,1.79,0,0,0,1.79-1.79v-9.6a1.79,1.79,0,0,1,1.79-1.79h6.64a1.79,1.79,0,0,1,1.79,1.79v9.71a1.79,1.79,0,0,0,1.79,1.79h2.42a1.79,1.79,0,0,0,1.79-1.79v-30A1.79,1.79,0,0,0,93.75.28H91.33a1.79,1.79,0,0,0-1.79,1.79V12.76A1.79,1.79,0,0,1,87.75,14.55Z"/><path d="M100.67,6.29h2.21a1.79,1.79,0,0,1,1.79,1.79v24a1.79,1.79,0,0,0,1.78,1.79h2.43a1.79,1.79,0,0,0,1.79-1.79v-24a1.79,1.79,0,0,1,1.78-1.79h2.68a1.79,1.79,0,0,0,1.79-1.79V2.08A1.79,1.79,0,0,0,115.13.29H100.67a1.79,1.79,0,0,0-1.79,1.79V4.5A1.79,1.79,0,0,0,100.67,6.29Z"/><path d="M126.27,22V2A1.79,1.79,0,0,0,124.48.22h-2.42A1.79,1.79,0,0,0,120.27,2v22.5a1.82,1.82,0,0,0,.52,1.27l7.6,7.6a1.8,1.8,0,0,0,1.26.52h9.94a1.79,1.79,0,0,0,1.79-1.79V29.69a1.79,1.79,0,0,0-1.79-1.79h-7.45a1.82,1.82,0,0,1-1.27-.52l-4.08-4.09A1.8,1.8,0,0,1,126.27,22Z"/><path d="M195.51,5.11v27a1.79,1.79,0,0,0,1.79,1.79h2.42a1.79,1.79,0,0,0,1.79-1.79V25.34a1.79,1.79,0,0,1,1.79-1.78h7a5.8,5.8,0,0,0,5.8-5.8V6.1A5.8,5.8,0,0,0,210.3.31h-10A4.8,4.8,0,0,0,195.51,5.11Zm12.8,12.45h-5a1.79,1.79,0,0,1-1.79-1.79V8.09a1.79,1.79,0,0,1,1.79-1.78h5a1.79,1.79,0,0,1,1.79,1.78v7.68A1.79,1.79,0,0,1,208.31,17.56Z"/><path d="M30.41.36H26.87a1.79,1.79,0,0,0-1.79,1.79V4.57a1.79,1.79,0,0,0,1.79,1.79h1.75a1.79,1.79,0,0,1,1.79,1.79V26a1.79,1.79,0,0,1-1.79,1.79H26.87a1.79,1.79,0,0,0-1.79,1.79V32a1.79,1.79,0,0,0,1.79,1.79H40A1.79,1.79,0,0,0,41.75,32V29.61A1.79,1.79,0,0,0,40,27.82H38.2A1.79,1.79,0,0,1,36.41,26V8.15A1.79,1.79,0,0,1,38.2,6.36H40a1.79,1.79,0,0,0,1.79-1.79V2.15A1.79,1.79,0,0,0,40,.36H30.41Z"/><path d="M172.64,1.56,159.75,27.21a1.2,1.2,0,0,1-1.08.67h-6.3a1.22,1.22,0,0,1-1.21-1.22V7.45a1.22,1.22,0,0,1,1.21-1.22h6.3a1.2,1.2,0,0,1,1.08.67L162,11.45a1.21,1.21,0,0,0,1.63.54h0a1.28,1.28,0,0,0,.54-.54l2-4a1.23,1.23,0,0,0,0-1.09l-2.43-4.83A2.4,2.4,0,0,0,161.63.23H150.57a5.42,5.42,0,0,0-5.41,5.42V28.46a5.42,5.42,0,0,0,5.41,5.42h11.06a2.42,2.42,0,0,0,2.15-1.33L176.67,6.9a1.23,1.23,0,0,1,1.09-.67h6.29a1.22,1.22,0,0,1,1.22,1.22V26.66a1.22,1.22,0,0,1-1.22,1.22h-6.29a1.23,1.23,0,0,1-1.09-.67l-2.21-4.39a1.21,1.21,0,0,0-1.63-.54l-.2.1a1.28,1.28,0,0,0-.54.54l-1.87,3.71a1.17,1.17,0,0,0,0,1.09l2.42,4.83a2.42,2.42,0,0,0,2.15,1.33h11.06a5.42,5.42,0,0,0,5.42-5.42V5.65A5.42,5.42,0,0,0,185.85.23H174.79A2.4,2.4,0,0,0,172.64,1.56Z"/></g></g></svg>