<svg xmlns="http://www.w3.org/2000/svg" width="139.9375" height="13.1865" viewBox="0 0 139.9375 13.1865">
      <path d="M10.5977,0H2.625A2.5421,2.5421,0,0,0,.77.7686,2.5531,2.5531,0,0,0,0,2.6338V13.1865H2.1387V8.5723h8.459A4.0112,4.0112,0,0,0,13.752,7.2148a4.3,4.3,0,0,0,1.07-2.9287,4.3261,4.3261,0,0,0-1.0518-2.9179A4.0163,4.0163,0,0,0,10.5977,0Zm0,6.4248H2.1387V2.6338a.4659.4659,0,0,1,.1465-.35.4482.4482,0,0,1,.34-.1455h7.9727a1.9319,1.9319,0,0,1,1.5771.6582,2.203,2.203,0,0,1,.499,1.4892,2.1779,2.1779,0,0,1-.5224,1.502A1.9368,1.9368,0,0,1,10.5977,6.4248Z" fill="#fff"/>
      <path d="M28.7617,0H22.4082A4.1363,4.1363,0,0,0,19.4,1.2432,4.1182,4.1182,0,0,0,18.1562,4.251V8.9443a4.2478,4.2478,0,0,0,4.252,4.2422h6.3535a4.2461,4.2461,0,0,0,4.252-4.2422V4.251a4.1164,4.1164,0,0,0-1.2461-3.0088A4.1319,4.1319,0,0,0,28.7617,0Zm0,11.0479H22.4082a2.1157,2.1157,0,0,1-2.1035-2.1036V4.251a2.0181,2.0181,0,0,1,.62-1.4942,1.9908,1.9908,0,0,1,1.4834-.6181h6.3535a1.9889,1.9889,0,0,1,1.4844.62,2.0134,2.0134,0,0,1,.6191,1.4922V8.9443a2.114,2.114,0,0,1-2.1035,2.1036Z" fill="#fff"/>
      <path d="M51.17,3.8291A3.44,3.44,0,0,0,50.0918,1.251,4.1346,4.1346,0,0,0,46.9541,0H38.9824a2.5726,2.5726,0,0,0-1.8652.7686,2.4535,2.4535,0,0,0-.7686,1.7773V13.1865h2.1475V7.6582h8.458a2.1172,2.1172,0,0,1,2.1035,2.1123v3.416h2.1475V9.7705A4.0245,4.0245,0,0,0,49.8232,6.63,3.451,3.451,0,0,0,51.17,3.8291ZM38.4961,2.5459a.4034.4034,0,0,1,.1367-.2617.464.464,0,0,1,.35-.1455h7.9717a2.0841,2.0841,0,0,1,1.6113.6133,1.3316,1.3316,0,0,1,.4658,1.0771,1.6272,1.6272,0,0,1-.4882,1.1953,2.3386,2.3386,0,0,1-1.5889.4951h-8.458Z" fill="#fff"/>
      <polygon points="54.54 2.139 59.787 2.139 59.787 13.187 61.935 13.187 61.935 2.139 67.19 2.139 67.19 0 54.54 0 54.54 2.139" fill="#fff"/>
      <path d="M71.2764.7686a2.5526,2.5526,0,0,0-.7686,1.8652V13.1865h2.1387v-5.73h10.415V5.3086H72.6465V2.6338a.4638.4638,0,0,1,.1455-.35.4489.4489,0,0,1,.3408-.1455h9.9287V0H73.1328A2.5424,2.5424,0,0,0,71.2764.7686Z" fill="#fff"/>
      <path d="M97.002,0H90.6475A4.1367,4.1367,0,0,0,87.64,1.2432,4.1161,4.1161,0,0,0,86.3965,4.251V8.9443a4.2461,4.2461,0,0,0,4.251,4.2422H97.002a4.2442,4.2442,0,0,0,4.2509-4.2422V4.251a4.1136,4.1136,0,0,0-1.2451-3.0088A4.1318,4.1318,0,0,0,97.002,0Zm0,11.0479H90.6475a1.9867,1.9867,0,0,1-1.4834-.62,2.0073,2.0073,0,0,1-.62-1.4834V4.251a2.0194,2.0194,0,0,1,.6211-1.4942,1.9888,1.9888,0,0,1,1.4825-.6181H97.002a1.9869,1.9869,0,0,1,1.4834.62,2.0147,2.0147,0,0,1,.62,1.4922V8.9443a2.0123,2.0123,0,0,1-.6211,1.4854A1.9889,1.9889,0,0,1,97.002,11.0479Z" fill="#fff"/>
      <path d="M106.875,10.9053a.4817.4817,0,0,1-.1387-.3526V0h-2.1484V10.5527a2.6256,2.6256,0,0,0,2.6348,2.6338h9.041V11.0479h-9.041A.4693.4693,0,0,1,106.875,10.9053Z" fill="#fff"/>
      <rect x="119.5977" width="2.1484" height="13.1865" fill="#fff"/>
      <path d="M135.6855,0H129.332a4.1364,4.1364,0,0,0-3.0078,1.2432A4.1181,4.1181,0,0,0,125.08,4.251V8.9443a4.2478,4.2478,0,0,0,4.2519,4.2422h6.3535a4.2459,4.2459,0,0,0,4.252-4.2422V4.251a4.116,4.116,0,0,0-1.2461-3.0088A4.1319,4.1319,0,0,0,135.6855,0Zm0,11.0479H129.332a2.1159,2.1159,0,0,1-2.1035-2.1036V4.251a2.0185,2.0185,0,0,1,.62-1.4942,1.991,1.991,0,0,1,1.4834-.6181h6.3535a1.9888,1.9888,0,0,1,1.4844.62,2.0135,2.0135,0,0,1,.6192,1.4922V8.9443a2.1142,2.1142,0,0,1-2.1036,2.1036Z" fill="#fff"/>
</svg>
