<svg xmlns="http://www.w3.org/2000/svg" width="126.666" height="13.1865" viewBox="0 0 126.666 13.1865">
      <polygon points="0 2.139 5.247 2.139 5.247 13.187 7.395 13.187 7.395 2.139 12.65 2.139 12.65 0 0 0 0 2.139" fill="#fff"/>
      <polygon points="27.262 5.309 18.115 5.309 18.115 0 15.968 0 15.968 13.187 18.115 13.187 18.115 7.456 27.262 7.456 27.262 13.187 29.4 13.187 29.4 0 27.262 0 27.262 5.309" fill="#fff"/>
      <path d="M33.4854.7686a2.5526,2.5526,0,0,0-.7686,1.8652V13.1865H45.2705V11.0479H34.8555V7.4561h10.415V5.3086H34.8555V2.6338a.4638.4638,0,0,1,.1455-.35.4489.4489,0,0,1,.3408-.1455h9.9287V0H35.3418A2.5424,2.5424,0,0,0,33.4854.7686Z" fill="#fff"/>
      <polygon points="56.559 2.139 61.806 2.139 61.806 13.187 63.953 13.187 63.953 2.139 69.209 2.139 69.209 0 56.559 0 56.559 2.139" fill="#fff"/>
      <path d="M73.2939.7686a2.5529,2.5529,0,0,0-.7685,1.8652V13.1865H85.0791V11.0479H74.6641V7.4561h10.415V5.3086H74.6641V2.6338a.4638.4638,0,0,1,.1455-.35.4488.4488,0,0,1,.3408-.1455h9.9287V0H75.15A2.5428,2.5428,0,0,0,73.2939.7686Z" fill="#fff"/>
      <path d="M99.0205,0H92.666a4.1158,4.1158,0,0,0-3.0078,1.2432A4.1158,4.1158,0,0,0,88.415,4.251v8.9355h2.1475v-5.73H101.124v5.73h2.1475V4.251a4.1033,4.1033,0,0,0-1.252-3.0078A4.1055,4.1055,0,0,0,99.0205,0ZM92.666,2.1387h6.3545a2.0056,2.0056,0,0,1,1.4834.62,2.0143,2.0143,0,0,1,.62,1.4922V5.3086H90.5625V4.251a2.0272,2.0272,0,0,1,.6113-1.4922A2.0159,2.0159,0,0,1,92.666,2.1387Z" fill="#fff"/>
      <path d="M123.3291,0h-3.8584a3.3153,3.3153,0,0,0-2.6641,1.3584A2.8736,2.8736,0,0,0,114.3643,0h-3.8584a3.3409,3.3409,0,0,0-2.587,1.2812,5.8193,5.8193,0,0,0-1.3125,3.1016v8.8037h2.1387V5.1211a3.9477,3.9477,0,0,1,.5733-2.1533,1.4583,1.4583,0,0,1,1.1875-.8291h3.8584c.1045,0,.4218,0,.78.5879a2.9572,2.9572,0,0,1,.418,1.5859v8.874H117.71V5.1211a3.9432,3.9432,0,0,1,.5752-2.1553,1.4411,1.4411,0,0,1,1.1855-.8271h3.8584c.1025,0,.415,0,.7783.5849a3.0094,3.0094,0,0,1,.4112,1.5889v8.874h2.1474V4.3125A4.9006,4.9006,0,0,0,125.72,1.3,2.9267,2.9267,0,0,0,123.3291,0Z" fill="#fff"/>
</svg>
